{
  "accessors": [
    {
      "bufferView": 2,
      "componentType": 5126,
      "count": 232,
      "max": [
        49.7757568359375,
        26.688552856445313,
        58.349788665771484
      ],
      "min": [
        -70.16783905029297,
        -0.26026034355163574,
        -58.68292999267578
      ],
      "type": "VEC3"
    },
    {
      "bufferView": 2,
      "byteOffset": 2784,
      "componentType": 5126,
      "count": 232,
      "max": [
        0.9763854742050171,
        1.0,
        0.995112419128418
      ],
      "min": [
        -0.996944010257721,
        -0.21768277883529663,
        -0.9950604438781738
      ],
      "type": "VEC3"
    },
    {
      "bufferView": 1,
      "componentType": 5126,
      "count": 232,
      "max": [
        0.9901482462882996,
        0.9807184934616089
      ],
      "min": [
        0.010210275650024414,
        0.00925755500793457
      ],
      "type": "VEC2"
    },
    {
      "bufferView": 0,
      "componentType": 5125,
      "count": 825,
      "type": "SCALAR"
    },
    {
      "bufferView": 2,
      "byteOffset": 5568,
      "componentType": 5126,
      "count": 56088,
      "max": [
        46.42919158935547,
        103.89200592041016,
        58.96975326538086
      ],
      "min": [
        -59.41978454589844,
        11.04489803314209,
        -54.85658264160156
      ],
      "type": "VEC3"
    },
    {
      "bufferView": 2,
      "byteOffset": 678624,
      "componentType": 5126,
      "count": 56088,
      "max": [
        1.0,
        1.0,
        1.0
      ],
      "min": [
        -1.0,
        -1.0,
        -1.0
      ],
      "type": "VEC3"
    },
    {
      "bufferView": 1,
      "byteOffset": 1856,
      "componentType": 5126,
      "count": 56088,
      "max": [
        0.9872790575027466,
        0.9855728149414063
      ],
      "min": [
        0.0043291933834552765,
        0.004290580749511719
      ],
      "type": "VEC2"
    },
    {
      "bufferView": 0,
      "byteOffset": 3300,
      "componentType": 5125,
      "count": 161298,
      "type": "SCALAR"
    },
    {
      "bufferView": 2,
      "byteOffset": 1351680,
      "componentType": 5126,
      "count": 132,
      "max": [
        4.016008377075195,
        60.66170883178711,
        30.21641731262207
      ],
      "min": [
        -41.35642623901367,
        28.776039123535156,
        -21.83342742919922
      ],
      "type": "VEC3"
    },
    {
      "bufferView": 2,
      "byteOffset": 1353264,
      "componentType": 5126,
      "count": 132,
      "max": [
        0.9971681237220764,
        0.4901188910007477,
        0.9881641268730164
      ],
      "min": [
        -0.9975631833076477,
        -0.9766407012939453,
        -0.9985163807868958
      ],
      "type": "VEC3"
    },
    {
      "bufferView": 1,
      "byteOffset": 450560,
      "componentType": 5126,
      "count": 132,
      "max": [
        0.0,
        0.0
      ],
      "min": [
        0.0,
        0.0
      ],
      "type": "VEC2"
    },
    {
      "bufferView": 0,
      "byteOffset": 648492,
      "componentType": 5125,
      "count": 258,
      "type": "SCALAR"
    }
  ],
  "asset": {
    "extras": {
      "author": "Angel_Schuerewegen (https://sketchfab.com/Angel_Schuerewegen)",
      "license": "CC-BY-4.0 (http://creativecommons.org/licenses/by/4.0/)",
      "source": "https://sketchfab.com/3d-models/1ggp16-schuerewegen-angel-gameartexam-761d6e3367c94f7ba0c9037ed1ae3fe7",
      "title": "1GGP16_Schuerewegen_Angel_GameArtExam"
    },
    "generator": "Sketchfab-11.26.0",
    "version": "2.0"
  },
  "bufferViews": [
    {
      "buffer": 0,
      "byteLength": 649524,
      "name": "floatBufferViews",
      "target": 34963
    },
    {
      "buffer": 0,
      "byteLength": 451616,
      "byteOffset": 649524,
      "byteStride": 8,
      "name": "floatBufferViews",
      "target": 34962
    },
    {
      "buffer": 0,
      "byteLength": 1354848,
      "byteOffset": 1101140,
      "byteStride": 12,
      "name": "floatBufferViews",
      "target": 34962
    }
  ],
  "buffers": [
    {
      "byteLength": 2455988,
      "uri": "scene.bin"
    }
  ],
  "extensionsUsed": [
    "KHR_materials_transmission"
  ],
  "images": [
    {
      "uri": "textures/lambert5_baseColor.png"
    },
    {
      "uri": "textures/lambert5_transmission.png"
    },
    {
      "uri": "textures/main_baseColor.jpeg"
    }
  ],
  "materials": [
    {
      "alphaMode": "BLEND",
      "doubleSided": true,
      "extensions": {
        "KHR_materials_transmission": {
          "transmissionFactor": 1.0,
          "transmissionTexture": {
            "index": 1
          }
        }
      },
      "name": "lambert5",
      "pbrMetallicRoughness": {
        "baseColorTexture": {
          "index": 0
        },
        "metallicFactor": 0.0,
        "roughnessFactor": 0.6
      }
    },
    {
      "doubleSided": true,
      "name": "main",
      "pbrMetallicRoughness": {
        "baseColorTexture": {
          "index": 2
        },
        "metallicFactor": 0.0,
        "roughnessFactor": 0.6
      }
    },
    {
      "doubleSided": true,
      "name": "aiAmbientOcclusion1",
      "pbrMetallicRoughness": {
        "baseColorFactor": [
          0.5,
          0.5,
          0.5,
          1.0
        ],
        "metallicFactor": 0.0,
        "roughnessFactor": 0.6
      }
    }
  ],
  "meshes": [
    {
      "name": "zenGarden_lambert5_0",
      "primitives": [
        {
          "attributes": {
            "NORMAL": 1,
            "POSITION": 0,
            "TEXCOORD_0": 2
          },
          "indices": 3,
          "material": 0,
          "mode": 4
        }
      ]
    },
    {
      "name": "zenGarden_main_0",
      "primitives": [
        {
          "attributes": {
            "NORMAL": 5,
            "POSITION": 4,
            "TEXCOORD_0": 6
          },
          "indices": 7,
          "material": 1,
          "mode": 4
        }
      ]
    },
    {
      "name": "zenGarden_aiAmbientOcclusion1_0",
      "primitives": [
        {
          "attributes": {
            "NORMAL": 9,
            "POSITION": 8,
            "TEXCOORD_0": 10
          },
          "indices": 11,
          "material": 2,
          "mode": 4
        }
      ]
    }
  ],
  "nodes": [
    {
      "children": [
        1
      ],
      "matrix": [
        1.0,
        0.0,
        0.0,
        0.0,
        0.0,
        2.220446049250313e-16,
        -1.0,
        0.0,
        0.0,
        1.0,
        2.220446049250313e-16,
        0.0,
        0.0,
        0.0,
        0.0,
        1.0
      ],
      "name": "Sketchfab_model"
    },
    {
      "children": [
        2
      ],
      "matrix": [
        1.0,
        0.0,
        0.0,
        0.0,
        0.0,
        0.0,
        1.0,
        0.0,
        0.0,
        -1.0,
        0.0,
        0.0,
        0.0,
        0.0,
        0.0,
        1.0
      ],
      "name": "7457d930d71d40389125a6d8a70f9ca7.fbx"
    },
    {
      "children": [
        3
      ],
      "name": "RootNode"
    },
    {
      "children": [
        4,
        5,
        6
      ],
      "name": "zenGarden"
    },
    {
      "mesh": 0,
      "name": "zenGarden_lambert5_0"
    },
    {
      "mesh": 1,
      "name": "zenGarden_main_0"
    },
    {
      "mesh": 2,
      "name": "zenGarden_aiAmbientOcclusion1_0"
    }
  ],
  "samplers": [
    {
      "magFilter": 9729,
      "minFilter": 9987,
      "wrapS": 10497,
      "wrapT": 10497
    }
  ],
  "scene": 0,
  "scenes": [
    {
      "name": "Sketchfab_Scene",
      "nodes": [
        0
      ]
    }
  ],
  "textures": [
    {
      "sampler": 0,
      "source": 0
    },
    {
      "sampler": 0,
      "source": 1
    },
    {
      "sampler": 0,
      "source": 2
    }
  ]
}
